<svg xmlns="http://www.w3.org/2000/svg">
	<symbol id="twitter" viewBox="0 0 24 24"><path d="M 25.855469 5.574219 C 24.914063 5.992188 23.902344 6.273438 22.839844 6.402344 C 23.921875 5.75 24.757813 4.722656 25.148438 3.496094 C 24.132813 4.097656 23.007813 4.535156 21.8125 4.769531 C 20.855469 3.75 19.492188 3.113281 17.980469 3.113281 C 15.082031 3.113281 12.730469 5.464844 12.730469 8.363281 C 12.730469 8.773438 12.777344 9.175781 12.867188 9.558594 C 8.503906 9.339844 4.636719 7.246094 2.046875 4.070313 C 1.59375 4.847656 1.335938 5.75 1.335938 6.714844 C 1.335938 8.535156 2.261719 10.140625 3.671875 11.082031 C 2.808594 11.054688 2 10.820313 1.292969 10.425781 C 1.292969 10.449219 1.292969 10.46875 1.292969 10.492188 C 1.292969 13.035156 3.101563 15.15625 5.503906 15.640625 C 5.0625 15.761719 4.601563 15.824219 4.121094 15.824219 C 3.78125 15.824219 3.453125 15.792969 3.132813 15.730469 C 3.800781 17.8125 5.738281 19.335938 8.035156 19.375 C 6.242188 20.785156 3.976563 21.621094 1.515625 21.621094 C 1.089844 21.621094 0.675781 21.597656 0.265625 21.550781 C 2.585938 23.039063 5.347656 23.90625 8.3125 23.90625 C 17.96875 23.90625 23.25 15.90625 23.25 8.972656 C 23.25 8.742188 23.246094 8.515625 23.234375 8.289063 C 24.261719 7.554688 25.152344 6.628906 25.855469 5.574219"/></symbol>
	<symbol id="youtube" viewBox="0 0 24 24"><path d="M56.456,17.442c-0.339-1.44-1.421-2.595-2.866-3.053C49.761,13.174,41.454,12,32,12s-17.761,1.174-21.591,2.389 c-1.445,0.458-2.527,1.613-2.866,3.053C6.903,20.161,6,25.203,6,32c0,6.797,0.903,11.839,1.544,14.558 c0.339,1.44,1.421,2.595,2.866,3.053C14.239,50.826,22.546,52,32,52s17.761-1.174,21.591-2.389 c1.445-0.458,2.527-1.613,2.866-3.053C57.097,43.839,58,38.797,58,32C58,25.203,57.097,20.161,56.456,17.442z M27,40V24l14.857,8 L27,40z"/></symbol>
	<symbol id="instagram" viewBox="0 0 24 24"><path d="M12 2.163c3.204 0 3.584.012 4.85.07 3.252.148 4.771 1.691 4.919 4.919.058 1.265.069 1.645.069 4.849 0 3.205-.012 3.584-.069 4.849-.149 3.225-1.664 4.771-4.919 4.919-1.266.058-1.644.07-4.85.07-3.204 0-3.584-.012-4.849-.07-3.26-.149-4.771-1.699-4.919-4.92-.058-1.265-.07-1.644-.07-4.849 0-3.204.013-3.583.07-4.849.149-3.227 1.664-4.771 4.919-4.919 1.266-.057 1.645-.069 4.849-.069zm0-2.163c-3.259 0-3.667.014-4.947.072-4.358.2-6.78 2.618-6.98 6.98-.059 1.281-.073 1.689-.073 4.948 0 3.259.014 3.668.072 4.948.2 4.358 2.618 6.78 6.98 6.98 1.281.058 1.689.072 4.948.072 3.259 0 3.668-.014 4.948-.072 4.354-.2 6.782-2.618 6.979-6.98.059-1.28.073-1.689.073-4.948 0-3.259-.014-3.667-.072-4.947-.196-4.354-2.617-6.78-6.979-6.98-1.281-.059-1.69-.073-4.949-.073zm0 5.838c-3.403 0-6.162 2.759-6.162 6.162s2.759 6.163 6.162 6.163 6.162-2.759 6.162-6.163c0-3.403-2.759-6.162-6.162-6.162zm0 10.162c-2.209 0-4-1.79-4-4 0-2.209 1.791-4 4-4s4 1.791 4 4c0 2.21-1.791 4-4 4zm6.406-11.845c-.796 0-1.441.645-1.441 1.44s.645 1.44 1.441 1.44c.795 0 1.439-.645 1.439-1.44s-.644-1.44-1.439-1.44z"/></symbol>
	<symbol id="facebook" viewBox="0 0 24 24"><path d="M9 8h-3v4h3v12h5v-12h3.642l.358-4h-4v-1.667c0-.955.192-1.333 1.115-1.333h2.885v-5h-3.808c-3.596 0-5.192 1.583-5.192 4.615v3.385z"/></symbol>
</svg>
