<svg xmlns="http://www.w3.org/2000/svg">
	<symbol id="twitter" viewBox="0 0 64 64"><path d="M 25.855469 5.574219 C 24.914063 5.992188 23.902344 6.273438 22.839844 6.402344 C 23.921875 5.75 24.757813 4.722656 25.148438 3.496094 C 24.132813 4.097656 23.007813 4.535156 21.8125 4.769531 C 20.855469 3.75 19.492188 3.113281 17.980469 3.113281 C 15.082031 3.113281 12.730469 5.464844 12.730469 8.363281 C 12.730469 8.773438 12.777344 9.175781 12.867188 9.558594 C 8.503906 9.339844 4.636719 7.246094 2.046875 4.070313 C 1.59375 4.847656 1.335938 5.75 1.335938 6.714844 C 1.335938 8.535156 2.261719 10.140625 3.671875 11.082031 C 2.808594 11.054688 2 10.820313 1.292969 10.425781 C 1.292969 10.449219 1.292969 10.46875 1.292969 10.492188 C 1.292969 13.035156 3.101563 15.15625 5.503906 15.640625 C 5.0625 15.761719 4.601563 15.824219 4.121094 15.824219 C 3.78125 15.824219 3.453125 15.792969 3.132813 15.730469 C 3.800781 17.8125 5.738281 19.335938 8.035156 19.375 C 6.242188 20.785156 3.976563 21.621094 1.515625 21.621094 C 1.089844 21.621094 0.675781 21.597656 0.265625 21.550781 C 2.585938 23.039063 5.347656 23.90625 8.3125 23.90625 C 17.96875 23.90625 23.25 15.90625 23.25 8.972656 C 23.25 8.742188 23.246094 8.515625 23.234375 8.289063 C 24.261719 7.554688 25.152344 6.628906 25.855469 5.574219"/></symbol>
	<symbol id="youtube" viewBox="0 0 64 64"><path d="M56.456,17.442c-0.339-1.44-1.421-2.595-2.866-3.053C49.761,13.174,41.454,12,32,12s-17.761,1.174-21.591,2.389 c-1.445,0.458-2.527,1.613-2.866,3.053C6.903,20.161,6,25.203,6,32c0,6.797,0.903,11.839,1.544,14.558 c0.339,1.44,1.421,2.595,2.866,3.053C14.239,50.826,22.546,52,32,52s17.761-1.174,21.591-2.389 c1.445-0.458,2.527-1.613,2.866-3.053C57.097,43.839,58,38.797,58,32C58,25.203,57.097,20.161,56.456,17.442z M27,40V24l14.857,8 L27,40z"/></symbol>
	<symbol id="instagram" viewBox="0 0 64 64"><path d="M 9.9980469 3 C 6.1390469 3 3 6.1419531 3 10.001953 L 3 20.001953 C 3 23.860953 6.1419531 27 10.001953 27 L 20.001953 27 C 23.860953 27 27 23.858047 27 19.998047 L 27 9.9980469 C 27 6.1390469 23.858047 3 19.998047 3 L 9.9980469 3 z M 22 7 C 22.552 7 23 7.448 23 8 C 23 8.552 22.552 9 22 9 C 21.448 9 21 8.552 21 8 C 21 7.448 21.448 7 22 7 z M 15 9 C 18.309 9 21 11.691 21 15 C 21 18.309 18.309 21 15 21 C 11.691 21 9 18.309 9 15 C 9 11.691 11.691 9 15 9 z M 15 11 A 4 4 0 0 0 11 15 A 4 4 0 0 0 15 19 A 4 4 0 0 0 19 15 A 4 4 0 0 0 15 11 z"/></symbol>
	<symbol id="facebook" viewBox="0 0 64 64">
		<path fill="#afafaf" d="M24,4C12.954,4,4,12.954,4,24s8.954,20,20,20s20-8.954,20-20S35.046,4,24,4z"/>
		<path fill="#fff" d="M26.707,29.301h5.176l0.813-5.258h-5.989v-2.874c0-2.184,0.714-4.121,2.757-4.121h3.283V12.46 c-0.577-0.078-1.797-0.248-4.102-0.248c-4.814,0-7.636,2.542-7.636,8.334v3.498H16.06v5.258h4.948v14.452 C21.988,43.9,22.981,44,24,44c0.921,0,1.82-0.084,2.707-0.204V29.301z"/>
	</symbol>
</svg>
